<svg xmlns="http://www.w3.org/2000/svg" xmlns:xlink="http://www.w3.org/1999/xlink" width="590" height="711.3"><rect width="590" height="711.3" rx="5" ry="5" class="a"/><svg y="0%" x="0%"><circle cx="20" cy="20" r="6" fill="#ff5f58"/><circle cx="40" cy="20" r="6" fill="#ffbd2e"/><circle cx="60" cy="20" r="6" fill="#18c132"/></svg><svg height="651.3" viewBox="0 0 50 65.13" width="500" x="40" xmlns="http://www.w3.org/2000/svg" xmlns:xlink="http://www.w3.org/1999/xlink" y="50"><style>@keyframes u{0%{transform:translateX(0)}4%{transform:translateX(-50px)}8%{transform:translateX(-100px)}12%{transform:translateX(-150px)}16%{transform:translateX(-200px)}20%{transform:translateX(-250px)}24%{transform:translateX(-300px)}28%{transform:translateX(-350px)}32%{transform:translateX(-400px)}36%{transform:translateX(-450px)}40%{transform:translateX(-500px)}44%{transform:translateX(-550px)}48%{transform:translateX(-600px)}52%{transform:translateX(-650px)}56%{transform:translateX(-700px)}60%{transform:translateX(-750px)}64%{transform:translateX(-800px)}68%{transform:translateX(-850px)}72%{transform:translateX(-900px)}76%{transform:translateX(-950px)}80%{transform:translateX(-1000px)}84%{transform:translateX(-1050px)}88%{transform:translateX(-1100px)}92%{transform:translateX(-1150px)}96%{transform:translateX(-1200px)}to{transform:translateX(-1250px)}}.a{fill:#1e1f29}.f,.g{fill:#5f87ff;white-space:pre}.g{fill:#0087ff}.h,.i,.j,.k,.l,.m{fill:#00afff;white-space:pre}.i,.j,.k,.l,.m{fill:#00afd7}.j,.k,.l,.m{fill:#00d7d7}.k,.l,.m{fill:#00d7af}.l,.m{fill:#00ffaf}.m{fill:#00ff87}.n,.o,.p,.q,.r,.s{fill:#5fff87;white-space:pre}.o,.p,.q,.r,.s{fill:#5fff5f}.p,.q,.r,.s{fill:#87ff5f}.q,.r,.s{fill:#87ff00}.r,.s{fill:#afff00}.s{fill:#afd700}</style><g font-family="Monaco,Consolas,Menlo,'Bitstream Vera Sans Mono','Powerline Symbols',monospace" font-size="1.67"><defs><symbol id="1"><text y="1.67" class="f">⣿⣿⣿⣿</text><text x="4.008" y="1.67" class="g">⣿⣿⣿⣿</text><text x="8.016" y="1.67" class="h">⣿⣿⣿⣿⣿</text><text x="13.026" y="1.67" class="i">⣿⣿⣿⣿</text><text x="17.034" y="1.67" class="j">⣿⣿⣿⣿</text><text x="21.042" y="1.67" class="k">⣿⣿⣿⣿⣿</text><text x="26.052" y="1.67" class="l">⣿⣿⣿⣿</text><text x="30.06" y="1.67" class="m">⣿⣿⣿⣿</text><text x="34.068" y="1.67" class="n">⣿⣿⣿⣿⣿</text><text x="39.078" y="1.67" class="o">⣿⣿⣿⣿</text><text x="43.086" y="1.67" class="p">⣿⣿⣿⣿</text><text x="47.094" y="1.67" class="q">⣿⣿</text></symbol><symbol id="2"><text y="1.67" class="f">⣿⣿⣿</text><text x="3.006" y="1.67" class="g">⣿⣿⣿⣿⣿</text><text x="8.016" y="1.67" class="h">⣿⣿⣿⣿</text><text x="12.024" y="1.67" class="i">⣿⣿⣿⣿</text><text x="16.032" y="1.67" class="j">⣿⣿⣿⣿⣿</text><text x="21.042" y="1.67" class="k">⣿⣿⣿⣿</text><text x="25.05" y="1.67" class="l">⣿⣿⣿⣿</text><text x="29.058" y="1.67" class="m">⣿⣿⣿⣿⣿</text><text x="34.068" y="1.67" class="n">⣿⣿⣿⣿</text><text x="38.076" y="1.67" class="o">⣿⣿⣿⣿⣿</text><text x="43.086" y="1.67" class="p">⣿⣿⣿⣿</text><text x="47.094" y="1.67" class="q">⣿⣿</text></symbol><symbol id="3"><text y="1.67" class="f">⣿⣿⣿</text><text x="3.006" y="1.67" class="g">⣿⣿⣿⣿</text><text x="7.014" y="1.67" class="h">⣿⣿⣿⣿⣿</text><text x="12.024" y="1.67" class="i">⣿⣿⡿⠿</text><text x="16.032" y="1.67" class="j">⣿⣿⣿⣿</text><text x="20.04" y="1.67" class="k">⣿⣿⣿⣿⣿</text><text x="25.05" y="1.67" class="l">⣿⣿⣿⣿</text><text x="29.058" y="1.67" class="m">⣿⣿⣿⣿</text><text x="33.066" y="1.67" class="n">⠿⢿⣿⣿⣿</text><text x="38.076" y="1.67" class="o">⣿⣿⣿⣿</text><text x="42.084" y="1.67" class="p">⣿⣿⣿⣿</text><text x="46.092" y="1.67" class="q">⣿⣿⣿</text></symbol><symbol id="4"><text y="1.67" class="f">⣿⣿⣿</text><text x="3.006" y="1.67" class="g">⣿⣿⣿⣿</text><text x="7.014" y="1.67" class="h">⣿⣿⡟⢻</text><text x="11.022" y="1.67" class="i">⣿⣿⣿⡇⠀</text><text x="16.032" y="1.67" class="j">⣿⣿⣿⡟</text><text x="20.04" y="1.67" class="k">⠉⣿⣿⣿</text><text x="24.048" y="1.67" class="l">⣿⣿⣿⣿⠉</text><text x="29.058" y="1.67" class="m">⢻⣿⣿⣿</text><text x="33.066" y="1.67" class="n">⠀⢸⣿⣿</text><text x="37.074" y="1.67" class="o">⣿⡟⢻⣿⣿</text><text x="42.084" y="1.67" class="p">⣿⣿⣿⣿</text><text x="46.092" y="1.67" class="q">⣿⣿⣿</text></symbol><symbol id="5"><text y="1.67" class="f">⣿⣿</text><text x="2.004" y="1.67" class="g">⣿⣿⣿⣿</text><text x="6.012" y="1.67" class="h">⣿⣿⣿⣧⠀</text><text x="11.022" y="1.67" class="i">⠻⠿⠟⢃</text><text x="15.03" y="1.67" class="j">⡀⠛⠿⠿</text><text x="19.038" y="1.67" class="k">⠁⣸⣿⣿⣿</text><text x="24.048" y="1.67" class="l">⣿⣿⣿⣿</text><text x="28.056" y="1.67" class="m">⣇⠈⠿⠿⠛</text><text x="33.066" y="1.67" class="n">⢀⡘⠻⠿</text><text x="37.074" y="1.67" class="o">⠟⠀⣼⣿</text><text x="41.082" y="1.67" class="p">⣿⣿⣿⣿⣿</text><text x="46.092" y="1.67" class="q">⣿⣿⣿</text></symbol><symbol id="6"><text y="1.67" class="f">⡿⣿</text><text x="2.004" y="1.67" class="g">⣿⣿⣿⣿</text><text x="6.012" y="1.67" class="h">⣿⣿⡿⢋</text><text x="10.02" y="1.67" class="i">⣥⣶⣿⣿⣿</text><text x="15.03" y="1.67" class="j">⣿⣿⣿⣶</text><text x="19.038" y="1.67" class="k">⣤⡙⢿⣿</text><text x="23.046" y="1.67" class="l">⣿⣿⣿⣿⡿</text><text x="28.056" y="1.67" class="m">⢋⣤⣶⣿</text><text x="32.064" y="1.67" class="n">⣿⣿⣿⣿</text><text x="36.072" y="1.67" class="o">⣿⣶⣬⡙⢿</text><text x="41.082" y="1.67" class="p">⣿⣿⣿⣿</text><text x="45.09" y="1.67" class="q">⣿⣿⣿⣿</text></symbol><symbol id="7"><text y="1.67" class="f">⣿</text><text x="1.002" y="1.67" class="g">⣿⣿⣿⣿⣿</text><text x="6.012" y="1.67" class="h">⣿⢏⣴⣿</text><text x="10.02" y="1.67" class="i">⣿⣿⣿⣿</text><text x="14.028" y="1.67" class="j">⣿⣿⣿⣿⣿</text><text x="19.038" y="1.67" class="k">⣿⣿⣧⡙</text><text x="23.046" y="1.67" class="l">⢿⣿⡿⢋</text><text x="27.054" y="1.67" class="m">⣼⣿⣿⣿⣿</text><text x="32.064" y="1.67" class="n">⣿⣿⣿⣿</text><text x="36.072" y="1.67" class="o">⣿⣿⣿⣿</text><text x="40.08" y="1.67" class="p">⣦⡹⣿⣿⣿</text><text x="45.09" y="1.67" class="q">⣿⣿⣿⣿</text></symbol><symbol id="8"><text y="1.67" class="f">⣿</text><text x="1.002" y="1.67" class="g">⣿⣿⣿⣿</text><text x="5.01" y="1.67" class="h">⣿⠇⣾⣿</text><text x="9.018" y="1.67" class="i">⣿⣿⣿⣿⣿</text><text x="14.028" y="1.67" class="j">⣿⠟⣫⣭</text><text x="18.036" y="1.67" class="k">⣭⣭⡛⢿⣿</text><text x="23.046" y="1.67" class="l">⡌⣿⢡⣿</text><text x="27.054" y="1.67" class="m">⡿⢛⣭⣭</text><text x="31.062" y="1.67" class="n">⣭⣝⠻⣿⣿</text><text x="36.072" y="1.67" class="o">⣿⣿⣿⣿</text><text x="40.08" y="1.67" class="p">⣿⣷⠸⣿</text><text x="44.088" y="1.67" class="q">⣿⣿⣿⣿⣿</text></symbol><symbol id="9"><text y="1.67" class="g">⣿⣿⣿⣿⣿</text><text x="5.01" y="1.67" class="h">⡿⢸⣿⣿</text><text x="9.018" y="1.67" class="i">⣿⣿⣿⣿</text><text x="13.026" y="1.67" class="j">⣿⢇⣾⠏⠁</text><text x="18.036" y="1.67" class="k">⠈⠙⣿⡌</text><text x="22.044" y="1.67" class="l">⣿⣧⠀⣼</text><text x="26.052" y="1.67" class="m">⣿⢡⣿⠋⠁</text><text x="31.062" y="1.67" class="n">⠈⠹⣷⡸</text><text x="35.07" y="1.67" class="o">⣿⣿⣿⣿</text><text x="39.078" y="1.67" class="p">⣿⣿⣿⡇⢿</text><text x="44.088" y="1.67" class="q">⣿⣿⣿⣿</text><text x="48.096" y="1.67" class="r">⣿</text></symbol><symbol id="10"><text y="1.67" class="g">⣿⣿⣿⣿</text><text x="4.008" y="1.67" class="h">⣿⣇⢸⣿⣿</text><text x="9.018" y="1.67" class="i">⣿⣿⣿⣿</text><text x="13.026" y="1.67" class="j">⣿⡜⣿⡄</text><text x="17.034" y="1.67" class="k">⠀⠀⢀⣾⠇</text><text x="22.044" y="1.67" class="l">⣿⣿⠀⣿</text><text x="26.052" y="1.67" class="m">⣿⠸⣷⡀</text><text x="30.06" y="1.67" class="n">⠀⠀⢠⣿⢣</text><text x="35.07" y="1.67" class="o">⣿⣿⣿⣿</text><text x="39.078" y="1.67" class="p">⣿⣿⣿⡇</text><text x="43.086" y="1.67" class="q">⣸⣿⣿⣿⣿</text><text x="48.096" y="1.67" class="r">⣿</text></symbol><symbol id="11"><text y="1.67" class="g">⣿⣿⣿⣿</text><text x="4.008" y="1.67" class="h">⣿⣿⡘⣿</text><text x="8.016" y="1.67" class="i">⣿⣿⣿⣿⣿</text><text x="13.026" y="1.67" class="j">⣿⣷⣌⠻</text><text x="17.034" y="1.67" class="k">⠷⠶⠿⣋</text><text x="21.042" y="1.67" class="l">⣼⠟⣡⣤⣬</text><text x="26.052" y="1.67" class="m">⣙⢧⣙⠿</text><text x="30.06" y="1.67" class="n">⠶⠾⠟⣡</text><text x="34.068" y="1.67" class="o">⣾⣿⣿⣿⣿</text><text x="39.078" y="1.67" class="p">⣿⣿⣿⢃</text><text x="43.086" y="1.67" class="q">⣿⣿⣿⣿</text><text x="47.094" y="1.67" class="r">⣿⣿</text></symbol><symbol id="12"><text y="1.67" class="g">⣿⣿⣿</text><text x="3.006" y="1.67" class="h">⣿⢟⣭⣶⢶</text><text x="8.016" y="1.67" class="i">⣮⣝⢻⣿</text><text x="12.024" y="1.67" class="j">⣿⣿⣿⣿</text><text x="16.032" y="1.67" class="k">⣿⣿⣿⣿⣿</text><text x="21.042" y="1.67" class="l">⡇⣾⣿⣿</text><text x="25.05" y="1.67" class="m">⣿⣿⡆⣿</text><text x="29.058" y="1.67" class="n">⣿⣿⣿⣿⣿</text><text x="34.068" y="1.67" class="o">⣿⣿⣿⣿</text><text x="38.076" y="1.67" class="p">⡟⣫⣵⡶⣶</text><text x="43.086" y="1.67" class="q">⣭⡻⣿⣿</text><text x="47.094" y="1.67" class="r">⣿⣿</text></symbol><symbol id="13"><text y="1.67" class="g">⣿⣿⣿</text><text x="3.006" y="1.67" class="h">⣱⣿⣿⣻</text><text x="7.014" y="1.67" class="i">⣿⣿⣿⣧⢻</text><text x="12.024" y="1.67" class="j">⣿⣿⣿⣿</text><text x="16.032" y="1.67" class="k">⣿⣿⣿⣿</text><text x="20.04" y="1.67" class="l">⠟⣡⢸⣿⣿</text><text x="25.05" y="1.67" class="m">⣿⣿⢃⠻</text><text x="29.058" y="1.67" class="n">⣿⣿⣿⣿</text><text x="33.066" y="1.67" class="o">⣿⣿⣿⣿⡟</text><text x="38.076" y="1.67" class="p">⣼⣿⣿⣿</text><text x="42.084" y="1.67" class="q">⣟⣿⣿⣎</text><text x="46.092" y="1.67" class="r">⣿⣿⣿</text></symbol><symbol id="14"><text y="1.67" class="g">⣿⣿⣿</text><text x="3.006" y="1.67" class="h">⣻⣿⣿⣏</text><text x="7.014" y="1.67" class="i">⡁⠲⣿⣧</text><text x="11.022" y="1.67" class="j">⣬⣙⣛⣛⣛</text><text x="16.032" y="1.67" class="k">⣛⣋⣭⣴</text><text x="20.04" y="1.67" class="l">⣿⣿⣧⣿</text><text x="24.048" y="1.67" class="m">⣿⣿⣣⣾⣿</text><text x="29.058" y="1.67" class="n">⣦⣭⣙⣛</text><text x="33.066" y="1.67" class="o">⣛⣛⣛⣋</text><text x="37.074" y="1.67" class="p">⣥⣼⣿⠖⢈</text><text x="42.084" y="1.67" class="q">⣹⣿⣿⣟</text><text x="46.092" y="1.67" class="r">⣿⣿⣿</text></symbol><symbol id="15"><text y="1.67" class="g">⣿⣿</text><text x="2.004" y="1.67" class="h">⣿⣿⣿⣿</text><text x="6.012" y="1.67" class="i">⣿⡇⠀⠀⠙</text><text x="11.022" y="1.67" class="j">⠻⢿⣿⣿</text><text x="15.03" y="1.67" class="k">⣿⣿⣿⣿</text><text x="19.038" y="1.67" class="l">⣿⣿⣿⣿⣿</text><text x="24.048" y="1.67" class="m">⣿⣿⣿⣿</text><text x="28.056" y="1.67" class="n">⣿⣿⣿⣿⣿</text><text x="33.066" y="1.67" class="o">⣿⣿⣿⡿</text><text x="37.074" y="1.67" class="p">⠟⠋⠀⠀</text><text x="41.082" y="1.67" class="q">⢸⣿⣿⣿⣿</text><text x="46.092" y="1.67" class="r">⣿⣿⣿</text></symbol><symbol id="16"><text y="1.67" class="g">⣿⣿</text><text x="2.004" y="1.67" class="h">⣿⣿⣿⣿</text><text x="6.012" y="1.67" class="i">⣿⣿⡀⠀</text><text x="10.02" y="1.67" class="j">⠀⠀⠀⠈⠙</text><text x="15.03" y="1.67" class="k">⠛⠿⣿⣿</text><text x="19.038" y="1.67" class="l">⣿⣿⣿⣿</text><text x="23.046" y="1.67" class="m">⣿⣿⣿⣿⣿</text><text x="28.056" y="1.67" class="n">⣿⣿⣿⣿</text><text x="32.064" y="1.67" class="o">⠿⠛⠋⠁</text><text x="36.072" y="1.67" class="p">⠀⠀⠀⠀⢀</text><text x="41.082" y="1.67" class="q">⣿⣿⣿⣿</text><text x="45.09" y="1.67" class="r">⣿⣿⣿⣿</text></symbol><symbol id="17"><text y="1.67" class="g">⣿</text><text x="1.002" y="1.67" class="h">⣿⣿⣿⣿⣿</text><text x="6.012" y="1.67" class="i">⣿⣿⣧⠀</text><text x="10.02" y="1.67" class="j">⠀⠀⠀⠀</text><text x="14.028" y="1.67" class="k">⠀⠀⠀⠀⢰</text><text x="19.038" y="1.67" class="l">⣭⣭⣍⣛</text><text x="23.046" y="1.67" class="m">⠛⠛⠛⣛</text><text x="27.054" y="1.67" class="n">⣩⣭⣭⡆⠀</text><text x="32.064" y="1.67" class="o">⠀⠀⠀⠀</text><text x="36.072" y="1.67" class="p">⠀⠀⠀⠀</text><text x="40.08" y="1.67" class="q">⣼⣿⣿⣿⣿</text><text x="45.09" y="1.67" class="r">⣿⣯⣿⣿</text></symbol><symbol id="18"><text y="1.67" class="g">⣿</text><text x="1.002" y="1.67" class="h">⣿⣿⣿⣿</text><text x="5.01" y="1.67" class="i">⣿⣿⣿⣿</text><text x="9.018" y="1.67" class="j">⣧⠀⠀⠀⠀</text><text x="14.028" y="1.67" class="k">⠀⠀⠀⠀</text><text x="18.036" y="1.67" class="l">⣾⣿⣿⣿⣿</text><text x="23.046" y="1.67" class="m">⠀⠀⠀⣿</text><text x="27.054" y="1.67" class="n">⣿⣿⣿⣷</text><text x="31.062" y="1.67" class="o">⠀⠀⠀⠀⠀</text><text x="36.072" y="1.67" class="p">⠀⠀⠀⣼</text><text x="40.08" y="1.67" class="q">⣿⣿⣿⣿</text><text x="44.088" y="1.67" class="r">⣿⣿⣿⣿⣿</text></symbol><symbol id="19"><text y="1.67" class="h">⣿⣿⣿⣿⣿</text><text x="5.01" y="1.67" class="i">⣿⣿⣿⣿</text><text x="9.018" y="1.67" class="j">⣿⣧⡀⠀</text><text x="13.026" y="1.67" class="k">⠀⠀⠀⠀⠀</text><text x="18.036" y="1.67" class="l">⠙⠛⠛⠛</text><text x="22.044" y="1.67" class="m">⠋⠀⠀⠀</text><text x="26.052" y="1.67" class="n">⠙⠛⠛⠛⠋</text><text x="31.062" y="1.67" class="o">⠀⠀⠀⠀</text><text x="35.07" y="1.67" class="p">⠀⠀⢀⣼</text><text x="39.078" y="1.67" class="q">⣿⣿⣿⣿⣿</text><text x="44.088" y="1.67" class="r">⣿⣿⣿⣿</text><text x="48.096" y="1.67" class="s">⣿</text></symbol><symbol id="20"><text y="1.67" class="h">⣿⣿⣿⣿</text><text x="4.008" y="1.67" class="i">⣿⣿⣿⣿⣿</text><text x="9.018" y="1.67" class="j">⣿⣿⣷⣄</text><text x="13.026" y="1.67" class="k">⠀⠀⠀⠀</text><text x="17.034" y="1.67" class="l">⠀⠀⠀⣀⣀</text><text x="22.044" y="1.67" class="m">⠀⠀⠀⠀</text><text x="26.052" y="1.67" class="n">⠀⣀⣀⠀</text><text x="30.06" y="1.67" class="o">⠀⠀⠀⠀⠀</text><text x="35.07" y="1.67" class="p">⠀⣠⣾⣿</text><text x="39.078" y="1.67" class="q">⣿⣿⣿⣿</text><text x="43.086" y="1.67" class="r">⣿⣿⣿⣿⣿</text><text x="48.096" y="1.67" class="s">⣿</text></symbol><symbol id="21"><text y="1.67" class="h">⣿⣿⣿⣿</text><text x="4.008" y="1.67" class="i">⣿⣿⣿⣿</text><text x="8.016" y="1.67" class="j">⣿⣿⣿⣿⣿</text><text x="13.026" y="1.67" class="k">⣷⣤⡀⠀</text><text x="17.034" y="1.67" class="l">⣠⣾⣿⣿</text><text x="21.042" y="1.67" class="m">⣿⣿⣷⣶⣾</text><text x="26.052" y="1.67" class="n">⣿⣿⣿⣿</text><text x="30.06" y="1.67" class="o">⣷⣄⠀⢀</text><text x="34.068" y="1.67" class="p">⣤⣾⣿⣿⣿</text><text x="39.078" y="1.67" class="q">⣿⣿⣿⣿</text><text x="43.086" y="1.67" class="r">⣿⣿⣿⣿</text><text x="47.094" y="1.67" class="s">⣿⣿</text></symbol><symbol id="22"><text y="1.67" class="h">⣿⣿⣿</text><text x="3.006" y="1.67" class="i">⣿⣿⣿⣿⣿</text><text x="8.016" y="1.67" class="j">⣿⣿⣿⣿</text><text x="12.024" y="1.67" class="k">⣿⣿⣿⣿</text><text x="16.032" y="1.67" class="l">⣷⣦⣬⣉⡛</text><text x="21.042" y="1.67" class="m">⠛⠛⠿⠿</text><text x="25.05" y="1.67" class="n">⠿⠛⠛⢛</text><text x="29.058" y="1.67" class="o">⣉⣥⣴⣾⣿</text><text x="34.068" y="1.67" class="p">⣿⣿⣿⣿</text><text x="38.076" y="1.67" class="q">⣿⣿⣿⣿⣿</text><text x="43.086" y="1.67" class="r">⣿⣿⣿⣿</text><text x="47.094" y="1.67" class="s">⣿⣿</text></symbol><symbol id="23"><text y="1.67" class="h">⣿⣿⣿</text><text x="3.006" y="1.67" class="i">⣿⣿⣿⣿</text><text x="7.014" y="1.67" class="j">⣿⣿⣿⣿⣿</text><text x="12.024" y="1.67" class="k">⣿⣿⣿⣿</text><text x="16.032" y="1.67" class="l">⣿⣿⣿⣿</text><text x="20.04" y="1.67" class="m">⣿⣿⣿⣿⣿</text><text x="25.05" y="1.67" class="n">⣿⣿⣿⣿</text><text x="29.058" y="1.67" class="o">⣿⣿⣿⣿</text><text x="33.066" y="1.67" class="p">⣿⣿⣿⣿⣿</text><text x="38.076" y="1.67" class="q">⣿⣿⣿⣿</text><text x="42.084" y="1.67" class="r">⣿⣿⣿⣿</text><text x="46.092" y="1.67" class="s">⣿⣿⣿</text></symbol><symbol id="24"><text y="1.67" class="h">⣿⣿⣿</text><text x="3.006" y="1.67" class="i">⣿⣿⣿⣿</text><text x="7.014" y="1.67" class="j">⣿⣿⣿⣿</text><text x="11.022" y="1.67" class="k">⣿⣿⣿⣿⣿</text><text x="16.032" y="1.67" class="l">⣿⣿⣿⣿</text><text x="20.04" y="1.67" class="m">⣿⣿⣿⣿</text><text x="24.048" y="1.67" class="n">⣿⣿⣿⣿⣿</text><text x="29.058" y="1.67" class="o">⣿⣿⣿⣿</text><text x="33.066" y="1.67" class="p">⣿⣿⣿⣿</text><text x="37.074" y="1.67" class="q">⣿⣿⣿⣿⣿</text><text x="42.084" y="1.67" class="r">⣿⣿⣿⣿</text><text x="46.092" y="1.67" class="s">⣿⣿⣿</text></symbol><symbol id="25"><text y="1.67" class="h">⣿⣿</text><text x="2.004" y="1.67" class="i">⣿⣿⣿⣿</text><text x="6.012" y="1.67" class="j">⣿⣿⣿⣿⣿</text><text x="11.022" y="1.67" class="k">⣿⣿⣿⣿</text><text x="15.03" y="1.67" class="l">⣿⣿⣿⣿</text><text x="19.038" y="1.67" class="m">⣿⣿⣿⣿⣿</text><text x="24.048" y="1.67" class="n">⣿⣿⣿⣿</text><text x="28.056" y="1.67" class="o">⣿⣿⣿⣿⣿</text><text x="33.066" y="1.67" class="p">⣿⣿⣿⣿</text><text x="37.074" y="1.67" class="q">⣿⣿⣿⣿</text><text x="41.082" y="1.67" class="r">⣿⣿⣿⣿⣿</text><text x="46.092" y="1.67" class="s">⣿⣿⣿</text></symbol><symbol id="a"><path fill="transparent" d="M0 0h50v31H0z"/></symbol></defs><path class="a" d="M0 0h50v65.13H0z"/><g style="animation-duration:7.5534919999999985s;animation-iteration-count:infinite;animation-name:u;animation-timing-function:steps(1,end)"><svg width="1300"><svg><use xlink:href="#a"/><use xlink:href="#1"/></svg><svg x="50"><use xlink:href="#a"/><use xlink:href="#1"/><use xlink:href="#2" y="2.171"/></svg><svg x="100"><use xlink:href="#a"/><use xlink:href="#1"/><use xlink:href="#2" y="2.171"/><use xlink:href="#3" y="4.342"/></svg><svg x="150"><use xlink:href="#a"/><use xlink:href="#1"/><use xlink:href="#2" y="2.171"/><use xlink:href="#3" y="4.342"/><use xlink:href="#4" y="6.513"/></svg><svg x="200"><use xlink:href="#a"/><use xlink:href="#1"/><use xlink:href="#2" y="2.171"/><use xlink:href="#3" y="4.342"/><use xlink:href="#4" y="6.513"/><use xlink:href="#5" y="8.684"/></svg><svg x="250"><use xlink:href="#a"/><use xlink:href="#1"/><use xlink:href="#2" y="2.171"/><use xlink:href="#3" y="4.342"/><use xlink:href="#4" y="6.513"/><use xlink:href="#5" y="8.684"/><use xlink:href="#6" y="10.855"/></svg><svg x="300"><use xlink:href="#a"/><use xlink:href="#1"/><use xlink:href="#2" y="2.171"/><use xlink:href="#3" y="4.342"/><use xlink:href="#4" y="6.513"/><use xlink:href="#5" y="8.684"/><use xlink:href="#6" y="10.855"/><use xlink:href="#7" y="13.026"/></svg><svg x="350"><use xlink:href="#a"/><use xlink:href="#1"/><use xlink:href="#2" y="2.171"/><use xlink:href="#3" y="4.342"/><use xlink:href="#4" y="6.513"/><use xlink:href="#5" y="8.684"/><use xlink:href="#6" y="10.855"/><use xlink:href="#7" y="13.026"/><use xlink:href="#8" y="15.197"/></svg><svg x="400"><use xlink:href="#a"/><use xlink:href="#1"/><use xlink:href="#2" y="2.171"/><use xlink:href="#3" y="4.342"/><use xlink:href="#4" y="6.513"/><use xlink:href="#5" y="8.684"/><use xlink:href="#6" y="10.855"/><use xlink:href="#7" y="13.026"/><use xlink:href="#8" y="15.197"/><use xlink:href="#9" y="17.368"/></svg><svg x="450"><use xlink:href="#a"/><use xlink:href="#1"/><use xlink:href="#2" y="2.171"/><use xlink:href="#3" y="4.342"/><use xlink:href="#4" y="6.513"/><use xlink:href="#5" y="8.684"/><use xlink:href="#6" y="10.855"/><use xlink:href="#7" y="13.026"/><use xlink:href="#8" y="15.197"/><use xlink:href="#9" y="17.368"/><use xlink:href="#10" y="19.539"/></svg><svg x="500"><use xlink:href="#a"/><use xlink:href="#1"/><use xlink:href="#2" y="2.171"/><use xlink:href="#3" y="4.342"/><use xlink:href="#4" y="6.513"/><use xlink:href="#5" y="8.684"/><use xlink:href="#6" y="10.855"/><use xlink:href="#7" y="13.026"/><use xlink:href="#8" y="15.197"/><use xlink:href="#9" y="17.368"/><use xlink:href="#10" y="19.539"/><use xlink:href="#11" y="21.71"/></svg><svg x="550"><use xlink:href="#a"/><use xlink:href="#1"/><use xlink:href="#2" y="2.171"/><use xlink:href="#3" y="4.342"/><use xlink:href="#4" y="6.513"/><use xlink:href="#5" y="8.684"/><use xlink:href="#6" y="10.855"/><use xlink:href="#7" y="13.026"/><use xlink:href="#8" y="15.197"/><use xlink:href="#9" y="17.368"/><use xlink:href="#10" y="19.539"/><use xlink:href="#11" y="21.71"/><use xlink:href="#12" y="23.881"/></svg><svg x="600"><use xlink:href="#a"/><use xlink:href="#1"/><use xlink:href="#2" y="2.171"/><use xlink:href="#3" y="4.342"/><use xlink:href="#4" y="6.513"/><use xlink:href="#5" y="8.684"/><use xlink:href="#6" y="10.855"/><use xlink:href="#7" y="13.026"/><use xlink:href="#8" y="15.197"/><use xlink:href="#9" y="17.368"/><use xlink:href="#10" y="19.539"/><use xlink:href="#11" y="21.71"/><use xlink:href="#12" y="23.881"/><use xlink:href="#13" y="26.052"/></svg><svg x="650"><use xlink:href="#a"/><use xlink:href="#1"/><use xlink:href="#2" y="2.171"/><use xlink:href="#3" y="4.342"/><use xlink:href="#4" y="6.513"/><use xlink:href="#5" y="8.684"/><use xlink:href="#6" y="10.855"/><use xlink:href="#7" y="13.026"/><use xlink:href="#8" y="15.197"/><use xlink:href="#9" y="17.368"/><use xlink:href="#10" y="19.539"/><use xlink:href="#11" y="21.71"/><use xlink:href="#12" y="23.881"/><use xlink:href="#13" y="26.052"/><use xlink:href="#14" y="28.223"/></svg><svg x="700"><use xlink:href="#a"/><use xlink:href="#1"/><use xlink:href="#2" y="2.171"/><use xlink:href="#3" y="4.342"/><use xlink:href="#4" y="6.513"/><use xlink:href="#5" y="8.684"/><use xlink:href="#6" y="10.855"/><use xlink:href="#7" y="13.026"/><use xlink:href="#8" y="15.197"/><use xlink:href="#9" y="17.368"/><use xlink:href="#10" y="19.539"/><use xlink:href="#11" y="21.71"/><use xlink:href="#12" y="23.881"/><use xlink:href="#13" y="26.052"/><use xlink:href="#14" y="28.223"/><use xlink:href="#15" y="30.394"/></svg><svg x="750"><use xlink:href="#a"/><use xlink:href="#1"/><use xlink:href="#2" y="2.171"/><use xlink:href="#3" y="4.342"/><use xlink:href="#4" y="6.513"/><use xlink:href="#5" y="8.684"/><use xlink:href="#6" y="10.855"/><use xlink:href="#7" y="13.026"/><use xlink:href="#8" y="15.197"/><use xlink:href="#9" y="17.368"/><use xlink:href="#10" y="19.539"/><use xlink:href="#11" y="21.71"/><use xlink:href="#12" y="23.881"/><use xlink:href="#13" y="26.052"/><use xlink:href="#14" y="28.223"/><use xlink:href="#15" y="30.394"/><use xlink:href="#16" y="32.565"/></svg><svg x="800"><use xlink:href="#a"/><use xlink:href="#1"/><use xlink:href="#2" y="2.171"/><use xlink:href="#3" y="4.342"/><use xlink:href="#4" y="6.513"/><use xlink:href="#5" y="8.684"/><use xlink:href="#6" y="10.855"/><use xlink:href="#7" y="13.026"/><use xlink:href="#8" y="15.197"/><use xlink:href="#9" y="17.368"/><use xlink:href="#10" y="19.539"/><use xlink:href="#11" y="21.71"/><use xlink:href="#12" y="23.881"/><use xlink:href="#13" y="26.052"/><use xlink:href="#14" y="28.223"/><use xlink:href="#15" y="30.394"/><use xlink:href="#16" y="32.565"/><use xlink:href="#17" y="34.736"/></svg><svg x="850"><use xlink:href="#a"/><use xlink:href="#1"/><use xlink:href="#2" y="2.171"/><use xlink:href="#3" y="4.342"/><use xlink:href="#4" y="6.513"/><use xlink:href="#5" y="8.684"/><use xlink:href="#6" y="10.855"/><use xlink:href="#7" y="13.026"/><use xlink:href="#8" y="15.197"/><use xlink:href="#9" y="17.368"/><use xlink:href="#10" y="19.539"/><use xlink:href="#11" y="21.71"/><use xlink:href="#12" y="23.881"/><use xlink:href="#13" y="26.052"/><use xlink:href="#14" y="28.223"/><use xlink:href="#15" y="30.394"/><use xlink:href="#16" y="32.565"/><use xlink:href="#17" y="34.736"/><use xlink:href="#18" y="36.907"/></svg><svg x="900"><use xlink:href="#a"/><use xlink:href="#1"/><use xlink:href="#2" y="2.171"/><use xlink:href="#3" y="4.342"/><use xlink:href="#4" y="6.513"/><use xlink:href="#5" y="8.684"/><use xlink:href="#6" y="10.855"/><use xlink:href="#7" y="13.026"/><use xlink:href="#8" y="15.197"/><use xlink:href="#9" y="17.368"/><use xlink:href="#10" y="19.539"/><use xlink:href="#11" y="21.71"/><use xlink:href="#12" y="23.881"/><use xlink:href="#13" y="26.052"/><use xlink:href="#14" y="28.223"/><use xlink:href="#15" y="30.394"/><use xlink:href="#16" y="32.565"/><use xlink:href="#17" y="34.736"/><use xlink:href="#18" y="36.907"/><use xlink:href="#19" y="39.078"/></svg><svg x="950"><use xlink:href="#a"/><use xlink:href="#1"/><use xlink:href="#2" y="2.171"/><use xlink:href="#3" y="4.342"/><use xlink:href="#4" y="6.513"/><use xlink:href="#5" y="8.684"/><use xlink:href="#6" y="10.855"/><use xlink:href="#7" y="13.026"/><use xlink:href="#8" y="15.197"/><use xlink:href="#9" y="17.368"/><use xlink:href="#10" y="19.539"/><use xlink:href="#11" y="21.71"/><use xlink:href="#12" y="23.881"/><use xlink:href="#13" y="26.052"/><use xlink:href="#14" y="28.223"/><use xlink:href="#15" y="30.394"/><use xlink:href="#16" y="32.565"/><use xlink:href="#17" y="34.736"/><use xlink:href="#18" y="36.907"/><use xlink:href="#19" y="39.078"/><use xlink:href="#20" y="41.249"/></svg><svg x="1000"><use xlink:href="#a"/><use xlink:href="#1"/><use xlink:href="#2" y="2.171"/><use xlink:href="#3" y="4.342"/><use xlink:href="#4" y="6.513"/><use xlink:href="#5" y="8.684"/><use xlink:href="#6" y="10.855"/><use xlink:href="#7" y="13.026"/><use xlink:href="#8" y="15.197"/><use xlink:href="#9" y="17.368"/><use xlink:href="#10" y="19.539"/><use xlink:href="#11" y="21.71"/><use xlink:href="#12" y="23.881"/><use xlink:href="#13" y="26.052"/><use xlink:href="#14" y="28.223"/><use xlink:href="#15" y="30.394"/><use xlink:href="#16" y="32.565"/><use xlink:href="#17" y="34.736"/><use xlink:href="#18" y="36.907"/><use xlink:href="#19" y="39.078"/><use xlink:href="#20" y="41.249"/><use xlink:href="#21" y="43.42"/></svg><svg x="1050"><use xlink:href="#a"/><use xlink:href="#1"/><use xlink:href="#2" y="2.171"/><use xlink:href="#3" y="4.342"/><use xlink:href="#4" y="6.513"/><use xlink:href="#5" y="8.684"/><use xlink:href="#6" y="10.855"/><use xlink:href="#7" y="13.026"/><use xlink:href="#8" y="15.197"/><use xlink:href="#9" y="17.368"/><use xlink:href="#10" y="19.539"/><use xlink:href="#11" y="21.71"/><use xlink:href="#12" y="23.881"/><use xlink:href="#13" y="26.052"/><use xlink:href="#14" y="28.223"/><use xlink:href="#15" y="30.394"/><use xlink:href="#16" y="32.565"/><use xlink:href="#17" y="34.736"/><use xlink:href="#18" y="36.907"/><use xlink:href="#19" y="39.078"/><use xlink:href="#20" y="41.249"/><use xlink:href="#21" y="43.42"/><use xlink:href="#22" y="45.591"/></svg><svg x="1100"><use xlink:href="#a"/><use xlink:href="#1"/><use xlink:href="#2" y="2.171"/><use xlink:href="#3" y="4.342"/><use xlink:href="#4" y="6.513"/><use xlink:href="#5" y="8.684"/><use xlink:href="#6" y="10.855"/><use xlink:href="#7" y="13.026"/><use xlink:href="#8" y="15.197"/><use xlink:href="#9" y="17.368"/><use xlink:href="#10" y="19.539"/><use xlink:href="#11" y="21.71"/><use xlink:href="#12" y="23.881"/><use xlink:href="#13" y="26.052"/><use xlink:href="#14" y="28.223"/><use xlink:href="#15" y="30.394"/><use xlink:href="#16" y="32.565"/><use xlink:href="#17" y="34.736"/><use xlink:href="#18" y="36.907"/><use xlink:href="#19" y="39.078"/><use xlink:href="#20" y="41.249"/><use xlink:href="#21" y="43.42"/><use xlink:href="#22" y="45.591"/><use xlink:href="#23" y="47.762"/></svg><svg x="1150"><use xlink:href="#a"/><use xlink:href="#1"/><use xlink:href="#2" y="2.171"/><use xlink:href="#3" y="4.342"/><use xlink:href="#4" y="6.513"/><use xlink:href="#5" y="8.684"/><use xlink:href="#6" y="10.855"/><use xlink:href="#7" y="13.026"/><use xlink:href="#8" y="15.197"/><use xlink:href="#9" y="17.368"/><use xlink:href="#10" y="19.539"/><use xlink:href="#11" y="21.71"/><use xlink:href="#12" y="23.881"/><use xlink:href="#13" y="26.052"/><use xlink:href="#14" y="28.223"/><use xlink:href="#15" y="30.394"/><use xlink:href="#16" y="32.565"/><use xlink:href="#17" y="34.736"/><use xlink:href="#18" y="36.907"/><use xlink:href="#19" y="39.078"/><use xlink:href="#20" y="41.249"/><use xlink:href="#21" y="43.42"/><use xlink:href="#22" y="45.591"/><use xlink:href="#23" y="47.762"/><use xlink:href="#24" y="49.933"/></svg><svg x="1200"><use xlink:href="#a"/><use xlink:href="#1"/><use xlink:href="#2" y="2.171"/><use xlink:href="#3" y="4.342"/><use xlink:href="#4" y="6.513"/><use xlink:href="#5" y="8.684"/><use xlink:href="#6" y="10.855"/><use xlink:href="#7" y="13.026"/><use xlink:href="#8" y="15.197"/><use xlink:href="#9" y="17.368"/><use xlink:href="#10" y="19.539"/><use xlink:href="#11" y="21.71"/><use xlink:href="#12" y="23.881"/><use xlink:href="#13" y="26.052"/><use xlink:href="#14" y="28.223"/><use xlink:href="#15" y="30.394"/><use xlink:href="#16" y="32.565"/><use xlink:href="#17" y="34.736"/><use xlink:href="#18" y="36.907"/><use xlink:href="#19" y="39.078"/><use xlink:href="#20" y="41.249"/><use xlink:href="#21" y="43.42"/><use xlink:href="#22" y="45.591"/><use xlink:href="#23" y="47.762"/><use xlink:href="#24" y="49.933"/><use xlink:href="#25" y="52.104"/></svg><svg x="1250"><use xlink:href="#a"/><use xlink:href="#1"/><use xlink:href="#2" y="2.171"/><use xlink:href="#3" y="4.342"/><use xlink:href="#4" y="6.513"/><use xlink:href="#5" y="8.684"/><use xlink:href="#6" y="10.855"/><use xlink:href="#7" y="13.026"/><use xlink:href="#8" y="15.197"/><use xlink:href="#9" y="17.368"/><use xlink:href="#10" y="19.539"/><use xlink:href="#11" y="21.71"/><use xlink:href="#12" y="23.881"/><use xlink:href="#13" y="26.052"/><use xlink:href="#14" y="28.223"/><use xlink:href="#15" y="30.394"/><use xlink:href="#16" y="32.565"/><use xlink:href="#17" y="34.736"/><use xlink:href="#18" y="36.907"/><use xlink:href="#19" y="39.078"/><use xlink:href="#20" y="41.249"/><use xlink:href="#21" y="43.42"/><use xlink:href="#22" y="45.591"/><use xlink:href="#23" y="47.762"/><use xlink:href="#24" y="49.933"/><use xlink:href="#25" y="52.104"/></svg></svg></g></g></svg></svg>

-----

<svg xmlns="http://www.w3.org/2000/svg" xmlns:xlink="http://www.w3.org/1999/xlink" width="590" height="711.3"><rect width="590" height="711.3" rx="5" ry="5" class="a"/><svg y="0%" x="0%"><circle cx="20" cy="20" r="6" fill="#ff5f58"/><circle cx="40" cy="20" r="6" fill="#ffbd2e"/><circle cx="60" cy="20" r="6" fill="#18c132"/></svg><svg height="651.3" viewBox="0 0 50 65.13" width="500" x="40" xmlns="http://www.w3.org/2000/svg" xmlns:xlink="http://www.w3.org/1999/xlink" y="50"><style>.a{fill:#1e1f29}.g,.h{fill:#5f87ff;white-space:pre}.h{fill:#0087ff}.i,.j,.k,.l,.m,.n{fill:#00afff;white-space:pre}.j,.k,.l,.m,.n{fill:#00afd7}.k,.l,.m,.n{fill:#00d7d7}.l,.m,.n{fill:#00d7af}.m,.n{fill:#00ffaf}.n{fill:#00ff87}.o,.p,.q,.r,.s,.t{fill:#5fff87;white-space:pre}.p,.q,.r,.s,.t{fill:#5fff5f}.q,.r,.s,.t{fill:#87ff5f}.r,.s,.t{fill:#87ff00}.s,.t{fill:#afff00}.t{fill:#afd700}</style><g font-family="Monaco,Consolas,Menlo,'Bitstream Vera Sans Mono','Powerline Symbols',monospace" font-size="1.67"><defs><symbol id="a"><path fill="transparent" d="M0 0h50v31H0z"/></symbol></defs><path class="a" d="M0 0h50v65.13H0z"/><svg width="50"><svg><use xlink:href="#a"/><text y="1.67" class="g">⣿⣿⣿⣿</text><text x="4.008" y="1.67" class="h">⣿⣿⣿⣿</text><text x="8.016" y="1.67" class="i">⣿⣿⣿⣿⣿</text><text x="13.026" y="1.67" class="j">⣿⣿⣿⣿</text><text x="17.034" y="1.67" class="k">⣿⣿⣿⣿</text><text x="21.042" y="1.67" class="l">⣿⣿⣿⣿⣿</text><text x="26.052" y="1.67" class="m">⣿⣿⣿⣿</text><text x="30.06" y="1.67" class="n">⣿⣿⣿⣿</text><text x="34.068" y="1.67" class="o">⣿⣿⣿⣿⣿</text><text x="39.078" y="1.67" class="p">⣿⣿⣿⣿</text><text x="43.086" y="1.67" class="q">⣿⣿⣿⣿</text><text x="47.094" y="1.67" class="r">⣿⣿</text><text y="3.841" class="g">⣿⣿⣿</text><text x="3.006" y="3.841" class="h">⣿⣿⣿⣿⣿</text><text x="8.016" y="3.841" class="i">⣿⣿⣿⣿</text><text x="12.024" y="3.841" class="j">⣿⣿⣿⣿</text><text x="16.032" y="3.841" class="k">⣿⣿⣿⣿⣿</text><text x="21.042" y="3.841" class="l">⣿⣿⣿⣿</text><text x="25.05" y="3.841" class="m">⣿⣿⣿⣿</text><text x="29.058" y="3.841" class="n">⣿⣿⣿⣿⣿</text><text x="34.068" y="3.841" class="o">⣿⣿⣿⣿</text><text x="38.076" y="3.841" class="p">⣿⣿⣿⣿⣿</text><text x="43.086" y="3.841" class="q">⣿⣿⣿⣿</text><text x="47.094" y="3.841" class="r">⣿⣿</text><text y="6.012" class="g">⣿⣿⣿</text><text x="3.006" y="6.012" class="h">⣿⣿⣿⣿</text><text x="7.014" y="6.012" class="i">⣿⣿⣿⣿⣿</text><text x="12.024" y="6.012" class="j">⣿⣿⡿⠿</text><text x="16.032" y="6.012" class="k">⣿⣿⣿⣿</text><text x="20.04" y="6.012" class="l">⣿⣿⣿⣿⣿</text><text x="25.05" y="6.012" class="m">⣿⣿⣿⣿</text><text x="29.058" y="6.012" class="n">⣿⣿⣿⣿</text><text x="33.066" y="6.012" class="o">⠿⢿⣿⣿⣿</text><text x="38.076" y="6.012" class="p">⣿⣿⣿⣿</text><text x="42.084" y="6.012" class="q">⣿⣿⣿⣿</text><text x="46.092" y="6.012" class="r">⣿⣿⣿</text><text y="8.183" class="g">⣿⣿⣿</text><text x="3.006" y="8.183" class="h">⣿⣿⣿⣿</text><text x="7.014" y="8.183" class="i">⣿⣿⡟⢻</text><text x="11.022" y="8.183" class="j">⣿⣿⣿⡇⠀</text><text x="16.032" y="8.183" class="k">⣿⣿⣿⡟</text><text x="20.04" y="8.183" class="l">⠉⣿⣿⣿</text><text x="24.048" y="8.183" class="m">⣿⣿⣿⣿⠉</text><text x="29.058" y="8.183" class="n">⢻⣿⣿⣿</text><text x="33.066" y="8.183" class="o">⠀⢸⣿⣿</text><text x="37.074" y="8.183" class="p">⣿⡟⢻⣿⣿</text><text x="42.084" y="8.183" class="q">⣿⣿⣿⣿</text><text x="46.092" y="8.183" class="r">⣿⣿⣿</text><text y="10.354" class="g">⣿⣿</text><text x="2.004" y="10.354" class="h">⣿⣿⣿⣿</text><text x="6.012" y="10.354" class="i">⣿⣿⣿⣧⠀</text><text x="11.022" y="10.354" class="j">⠻⠿⠟⢃</text><text x="15.03" y="10.354" class="k">⡀⠛⠿⠿</text><text x="19.038" y="10.354" class="l">⠁⣸⣿⣿⣿</text><text x="24.048" y="10.354" class="m">⣿⣿⣿⣿</text><text x="28.056" y="10.354" class="n">⣇⠈⠿⠿⠛</text><text x="33.066" y="10.354" class="o">⢀⡘⠻⠿</text><text x="37.074" y="10.354" class="p">⠟⠀⣼⣿</text><text x="41.082" y="10.354" class="q">⣿⣿⣿⣿⣿</text><text x="46.092" y="10.354" class="r">⣿⣿⣿</text><text y="12.525" class="g">⡿⣿</text><text x="2.004" y="12.525" class="h">⣿⣿⣿⣿</text><text x="6.012" y="12.525" class="i">⣿⣿⡿⢋</text><text x="10.02" y="12.525" class="j">⣥⣶⣿⣿⣿</text><text x="15.03" y="12.525" class="k">⣿⣿⣿⣶</text><text x="19.038" y="12.525" class="l">⣤⡙⢿⣿</text><text x="23.046" y="12.525" class="m">⣿⣿⣿⣿⡿</text><text x="28.056" y="12.525" class="n">⢋⣤⣶⣿</text><text x="32.064" y="12.525" class="o">⣿⣿⣿⣿</text><text x="36.072" y="12.525" class="p">⣿⣶⣬⡙⢿</text><text x="41.082" y="12.525" class="q">⣿⣿⣿⣿</text><text x="45.09" y="12.525" class="r">⣿⣿⣿⣿</text><text y="14.696" class="g">⣿</text><text x="1.002" y="14.696" class="h">⣿⣿⣿⣿⣿</text><text x="6.012" y="14.696" class="i">⣿⢏⣴⣿</text><text x="10.02" y="14.696" class="j">⣿⣿⣿⣿</text><text x="14.028" y="14.696" class="k">⣿⣿⣿⣿⣿</text><text x="19.038" y="14.696" class="l">⣿⣿⣧⡙</text><text x="23.046" y="14.696" class="m">⢿⣿⡿⢋</text><text x="27.054" y="14.696" class="n">⣼⣿⣿⣿⣿</text><text x="32.064" y="14.696" class="o">⣿⣿⣿⣿</text><text x="36.072" y="14.696" class="p">⣿⣿⣿⣿</text><text x="40.08" y="14.696" class="q">⣦⡹⣿⣿⣿</text><text x="45.09" y="14.696" class="r">⣿⣿⣿⣿</text><text y="16.867" class="g">⣿</text><text x="1.002" y="16.867" class="h">⣿⣿⣿⣿</text><text x="5.01" y="16.867" class="i">⣿⠇⣾⣿</text><text x="9.018" y="16.867" class="j">⣿⣿⣿⣿⣿</text><text x="14.028" y="16.867" class="k">⣿⠟⣫⣭</text><text x="18.036" y="16.867" class="l">⣭⣭⡛⢿⣿</text><text x="23.046" y="16.867" class="m">⡌⣿⢡⣿</text><text x="27.054" y="16.867" class="n">⡿⢛⣭⣭</text><text x="31.062" y="16.867" class="o">⣭⣝⠻⣿⣿</text><text x="36.072" y="16.867" class="p">⣿⣿⣿⣿</text><text x="40.08" y="16.867" class="q">⣿⣷⠸⣿</text><text x="44.088" y="16.867" class="r">⣿⣿⣿⣿⣿</text><text y="19.038" class="h">⣿⣿⣿⣿⣿</text><text x="5.01" y="19.038" class="i">⡿⢸⣿⣿</text><text x="9.018" y="19.038" class="j">⣿⣿⣿⣿</text><text x="13.026" y="19.038" class="k">⣿⢇⣾⠏⠁</text><text x="18.036" y="19.038" class="l">⠈⠙⣿⡌</text><text x="22.044" y="19.038" class="m">⣿⣧⠀⣼</text><text x="26.052" y="19.038" class="n">⣿⢡⣿⠋⠁</text><text x="31.062" y="19.038" class="o">⠈⠹⣷⡸</text><text x="35.07" y="19.038" class="p">⣿⣿⣿⣿</text><text x="39.078" y="19.038" class="q">⣿⣿⣿⡇⢿</text><text x="44.088" y="19.038" class="r">⣿⣿⣿⣿</text><text x="48.096" y="19.038" class="s">⣿</text><text y="21.209" class="h">⣿⣿⣿⣿</text><text x="4.008" y="21.209" class="i">⣿⣇⢸⣿⣿</text><text x="9.018" y="21.209" class="j">⣿⣿⣿⣿</text><text x="13.026" y="21.209" class="k">⣿⡜⣿⡄</text><text x="17.034" y="21.209" class="l">⠀⠀⢀⣾⠇</text><text x="22.044" y="21.209" class="m">⣿⣿⠀⣿</text><text x="26.052" y="21.209" class="n">⣿⠸⣷⡀</text><text x="30.06" y="21.209" class="o">⠀⠀⢠⣿⢣</text><text x="35.07" y="21.209" class="p">⣿⣿⣿⣿</text><text x="39.078" y="21.209" class="q">⣿⣿⣿⡇</text><text x="43.086" y="21.209" class="r">⣸⣿⣿⣿⣿</text><text x="48.096" y="21.209" class="s">⣿</text><text y="23.38" class="h">⣿⣿⣿⣿</text><text x="4.008" y="23.38" class="i">⣿⣿⡘⣿</text><text x="8.016" y="23.38" class="j">⣿⣿⣿⣿⣿</text><text x="13.026" y="23.38" class="k">⣿⣷⣌⠻</text><text x="17.034" y="23.38" class="l">⠷⠶⠿⣋</text><text x="21.042" y="23.38" class="m">⣼⠟⣡⣤⣬</text><text x="26.052" y="23.38" class="n">⣙⢧⣙⠿</text><text x="30.06" y="23.38" class="o">⠶⠾⠟⣡</text><text x="34.068" y="23.38" class="p">⣾⣿⣿⣿⣿</text><text x="39.078" y="23.38" class="q">⣿⣿⣿⢃</text><text x="43.086" y="23.38" class="r">⣿⣿⣿⣿</text><text x="47.094" y="23.38" class="s">⣿⣿</text><text y="25.551" class="h">⣿⣿⣿</text><text x="3.006" y="25.551" class="i">⣿⢟⣭⣶⢶</text><text x="8.016" y="25.551" class="j">⣮⣝⢻⣿</text><text x="12.024" y="25.551" class="k">⣿⣿⣿⣿</text><text x="16.032" y="25.551" class="l">⣿⣿⣿⣿⣿</text><text x="21.042" y="25.551" class="m">⡇⣾⣿⣿</text><text x="25.05" y="25.551" class="n">⣿⣿⡆⣿</text><text x="29.058" y="25.551" class="o">⣿⣿⣿⣿⣿</text><text x="34.068" y="25.551" class="p">⣿⣿⣿⣿</text><text x="38.076" y="25.551" class="q">⡟⣫⣵⡶⣶</text><text x="43.086" y="25.551" class="r">⣭⡻⣿⣿</text><text x="47.094" y="25.551" class="s">⣿⣿</text><text y="27.722" class="h">⣿⣿⣿</text><text x="3.006" y="27.722" class="i">⣱⣿⣿⣻</text><text x="7.014" y="27.722" class="j">⣿⣿⣿⣧⢻</text><text x="12.024" y="27.722" class="k">⣿⣿⣿⣿</text><text x="16.032" y="27.722" class="l">⣿⣿⣿⣿</text><text x="20.04" y="27.722" class="m">⠟⣡⢸⣿⣿</text><text x="25.05" y="27.722" class="n">⣿⣿⢃⠻</text><text x="29.058" y="27.722" class="o">⣿⣿⣿⣿</text><text x="33.066" y="27.722" class="p">⣿⣿⣿⣿⡟</text><text x="38.076" y="27.722" class="q">⣼⣿⣿⣿</text><text x="42.084" y="27.722" class="r">⣟⣿⣿⣎</text><text x="46.092" y="27.722" class="s">⣿⣿⣿</text><text y="29.893" class="h">⣿⣿⣿</text><text x="3.006" y="29.893" class="i">⣻⣿⣿⣏</text><text x="7.014" y="29.893" class="j">⡁⠲⣿⣧</text><text x="11.022" y="29.893" class="k">⣬⣙⣛⣛⣛</text><text x="16.032" y="29.893" class="l">⣛⣋⣭⣴</text><text x="20.04" y="29.893" class="m">⣿⣿⣧⣿</text><text x="24.048" y="29.893" class="n">⣿⣿⣣⣾⣿</text><text x="29.058" y="29.893" class="o">⣦⣭⣙⣛</text><text x="33.066" y="29.893" class="p">⣛⣛⣛⣋</text><text x="37.074" y="29.893" class="q">⣥⣼⣿⠖⢈</text><text x="42.084" y="29.893" class="r">⣹⣿⣿⣟</text><text x="46.092" y="29.893" class="s">⣿⣿⣿</text><text y="32.064" class="h">⣿⣿</text><text x="2.004" y="32.064" class="i">⣿⣿⣿⣿</text><text x="6.012" y="32.064" class="j">⣿⡇⠀⠀⠙</text><text x="11.022" y="32.064" class="k">⠻⢿⣿⣿</text><text x="15.03" y="32.064" class="l">⣿⣿⣿⣿</text><text x="19.038" y="32.064" class="m">⣿⣿⣿⣿⣿</text><text x="24.048" y="32.064" class="n">⣿⣿⣿⣿</text><text x="28.056" y="32.064" class="o">⣿⣿⣿⣿⣿</text><text x="33.066" y="32.064" class="p">⣿⣿⣿⡿</text><text x="37.074" y="32.064" class="q">⠟⠋⠀⠀</text><text x="41.082" y="32.064" class="r">⢸⣿⣿⣿⣿</text><text x="46.092" y="32.064" class="s">⣿⣿⣿</text><text y="34.235" class="h">⣿⣿</text><text x="2.004" y="34.235" class="i">⣿⣿⣿⣿</text><text x="6.012" y="34.235" class="j">⣿⣿⡀⠀</text><text x="10.02" y="34.235" class="k">⠀⠀⠀⠈⠙</text><text x="15.03" y="34.235" class="l">⠛⠿⣿⣿</text><text x="19.038" y="34.235" class="m">⣿⣿⣿⣿</text><text x="23.046" y="34.235" class="n">⣿⣿⣿⣿⣿</text><text x="28.056" y="34.235" class="o">⣿⣿⣿⣿</text><text x="32.064" y="34.235" class="p">⠿⠛⠋⠁</text><text x="36.072" y="34.235" class="q">⠀⠀⠀⠀⢀</text><text x="41.082" y="34.235" class="r">⣿⣿⣿⣿</text><text x="45.09" y="34.235" class="s">⣿⣿⣿⣿</text><text y="36.406" class="h">⣿</text><text x="1.002" y="36.406" class="i">⣿⣿⣿⣿⣿</text><text x="6.012" y="36.406" class="j">⣿⣿⣧⠀</text><text x="10.02" y="36.406" class="k">⠀⠀⠀⠀</text><text x="14.028" y="36.406" class="l">⠀⠀⠀⠀⢰</text><text x="19.038" y="36.406" class="m">⣭⣭⣍⣛</text><text x="23.046" y="36.406" class="n">⠛⠛⠛⣛</text><text x="27.054" y="36.406" class="o">⣩⣭⣭⡆⠀</text><text x="32.064" y="36.406" class="p">⠀⠀⠀⠀</text><text x="36.072" y="36.406" class="q">⠀⠀⠀⠀</text><text x="40.08" y="36.406" class="r">⣼⣿⣿⣿⣿</text><text x="45.09" y="36.406" class="s">⣿⣯⣿⣿</text><text y="38.577" class="h">⣿</text><text x="1.002" y="38.577" class="i">⣿⣿⣿⣿</text><text x="5.01" y="38.577" class="j">⣿⣿⣿⣿</text><text x="9.018" y="38.577" class="k">⣧⠀⠀⠀⠀</text><text x="14.028" y="38.577" class="l">⠀⠀⠀⠀</text><text x="18.036" y="38.577" class="m">⣾⣿⣿⣿⣿</text><text x="23.046" y="38.577" class="n">⠀⠀⠀⣿</text><text x="27.054" y="38.577" class="o">⣿⣿⣿⣷</text><text x="31.062" y="38.577" class="p">⠀⠀⠀⠀⠀</text><text x="36.072" y="38.577" class="q">⠀⠀⠀⣼</text><text x="40.08" y="38.577" class="r">⣿⣿⣿⣿</text><text x="44.088" y="38.577" class="s">⣿⣿⣿⣿⣿</text><text y="40.748" class="i">⣿⣿⣿⣿⣿</text><text x="5.01" y="40.748" class="j">⣿⣿⣿⣿</text><text x="9.018" y="40.748" class="k">⣿⣧⡀⠀</text><text x="13.026" y="40.748" class="l">⠀⠀⠀⠀⠀</text><text x="18.036" y="40.748" class="m">⠙⠛⠛⠛</text><text x="22.044" y="40.748" class="n">⠋⠀⠀⠀</text><text x="26.052" y="40.748" class="o">⠙⠛⠛⠛⠋</text><text x="31.062" y="40.748" class="p">⠀⠀⠀⠀</text><text x="35.07" y="40.748" class="q">⠀⠀⢀⣼</text><text x="39.078" y="40.748" class="r">⣿⣿⣿⣿⣿</text><text x="44.088" y="40.748" class="s">⣿⣿⣿⣿</text><text x="48.096" y="40.748" class="t">⣿</text><text y="42.919" class="i">⣿⣿⣿⣿</text><text x="4.008" y="42.919" class="j">⣿⣿⣿⣿⣿</text><text x="9.018" y="42.919" class="k">⣿⣿⣷⣄</text><text x="13.026" y="42.919" class="l">⠀⠀⠀⠀</text><text x="17.034" y="42.919" class="m">⠀⠀⠀⣀⣀</text><text x="22.044" y="42.919" class="n">⠀⠀⠀⠀</text><text x="26.052" y="42.919" class="o">⠀⣀⣀⠀</text><text x="30.06" y="42.919" class="p">⠀⠀⠀⠀⠀</text><text x="35.07" y="42.919" class="q">⠀⣠⣾⣿</text><text x="39.078" y="42.919" class="r">⣿⣿⣿⣿</text><text x="43.086" y="42.919" class="s">⣿⣿⣿⣿⣿</text><text x="48.096" y="42.919" class="t">⣿</text><text y="45.09" class="i">⣿⣿⣿⣿</text><text x="4.008" y="45.09" class="j">⣿⣿⣿⣿</text><text x="8.016" y="45.09" class="k">⣿⣿⣿⣿⣿</text><text x="13.026" y="45.09" class="l">⣷⣤⡀⠀</text><text x="17.034" y="45.09" class="m">⣠⣾⣿⣿</text><text x="21.042" y="45.09" class="n">⣿⣿⣷⣶⣾</text><text x="26.052" y="45.09" class="o">⣿⣿⣿⣿</text><text x="30.06" y="45.09" class="p">⣷⣄⠀⢀</text><text x="34.068" y="45.09" class="q">⣤⣾⣿⣿⣿</text><text x="39.078" y="45.09" class="r">⣿⣿⣿⣿</text><text x="43.086" y="45.09" class="s">⣿⣿⣿⣿</text><text x="47.094" y="45.09" class="t">⣿⣿</text><text y="47.261" class="i">⣿⣿⣿</text><text x="3.006" y="47.261" class="j">⣿⣿⣿⣿⣿</text><text x="8.016" y="47.261" class="k">⣿⣿⣿⣿</text><text x="12.024" y="47.261" class="l">⣿⣿⣿⣿</text><text x="16.032" y="47.261" class="m">⣷⣦⣬⣉⡛</text><text x="21.042" y="47.261" class="n">⠛⠛⠿⠿</text><text x="25.05" y="47.261" class="o">⠿⠛⠛⢛</text><text x="29.058" y="47.261" class="p">⣉⣥⣴⣾⣿</text><text x="34.068" y="47.261" class="q">⣿⣿⣿⣿</text><text x="38.076" y="47.261" class="r">⣿⣿⣿⣿⣿</text><text x="43.086" y="47.261" class="s">⣿⣿⣿⣿</text><text x="47.094" y="47.261" class="t">⣿⣿</text><text y="49.432" class="i">⣿⣿⣿</text><text x="3.006" y="49.432" class="j">⣿⣿⣿⣿</text><text x="7.014" y="49.432" class="k">⣿⣿⣿⣿⣿</text><text x="12.024" y="49.432" class="l">⣿⣿⣿⣿</text><text x="16.032" y="49.432" class="m">⣿⣿⣿⣿</text><text x="20.04" y="49.432" class="n">⣿⣿⣿⣿⣿</text><text x="25.05" y="49.432" class="o">⣿⣿⣿⣿</text><text x="29.058" y="49.432" class="p">⣿⣿⣿⣿</text><text x="33.066" y="49.432" class="q">⣿⣿⣿⣿⣿</text><text x="38.076" y="49.432" class="r">⣿⣿⣿⣿</text><text x="42.084" y="49.432" class="s">⣿⣿⣿⣿</text><text x="46.092" y="49.432" class="t">⣿⣿⣿</text><text y="51.603" class="i">⣿⣿⣿</text><text x="3.006" y="51.603" class="j">⣿⣿⣿⣿</text><text x="7.014" y="51.603" class="k">⣿⣿⣿⣿</text><text x="11.022" y="51.603" class="l">⣿⣿⣿⣿⣿</text><text x="16.032" y="51.603" class="m">⣿⣿⣿⣿</text><text x="20.04" y="51.603" class="n">⣿⣿⣿⣿</text><text x="24.048" y="51.603" class="o">⣿⣿⣿⣿⣿</text><text x="29.058" y="51.603" class="p">⣿⣿⣿⣿</text><text x="33.066" y="51.603" class="q">⣿⣿⣿⣿</text><text x="37.074" y="51.603" class="r">⣿⣿⣿⣿⣿</text><text x="42.084" y="51.603" class="s">⣿⣿⣿⣿</text><text x="46.092" y="51.603" class="t">⣿⣿⣿</text><text y="53.774" class="i">⣿⣿</text><text x="2.004" y="53.774" class="j">⣿⣿⣿⣿</text><text x="6.012" y="53.774" class="k">⣿⣿⣿⣿⣿</text><text x="11.022" y="53.774" class="l">⣿⣿⣿⣿</text><text x="15.03" y="53.774" class="m">⣿⣿⣿⣿</text><text x="19.038" y="53.774" class="n">⣿⣿⣿⣿⣿</text><text x="24.048" y="53.774" class="o">⣿⣿⣿⣿</text><text x="28.056" y="53.774" class="p">⣿⣿⣿⣿⣿</text><text x="33.066" y="53.774" class="q">⣿⣿⣿⣿</text><text x="37.074" y="53.774" class="r">⣿⣿⣿⣿</text><text x="41.082" y="53.774" class="s">⣿⣿⣿⣿⣿</text><text x="46.092" y="53.774" class="t">⣿⣿⣿</text></svg></svg></g></svg></svg>
